<?xml version="1.0" encoding="utf-8"?>
<!-- Generated by IcoMoon.io -->
<svg version="1.1" xmlns="http://www.w3.org/2000/svg" xmlns:xlink="http://www.w3.org/1999/xlink" width="53" height="240" viewBox="0 0 53 240">
<svg id="icon-add" width="15" height="15" viewBox="0 0 15 15" x="0" y="0">
<path fill="none" stroke="#fff" stroke-width="2.5" stroke-miterlimit="4" stroke-linecap="round" stroke-linejoin="round" d="M7.5 3.125v8.75"></path>
<path fill="none" stroke="#fff" stroke-width="2.5" stroke-miterlimit="4" stroke-linecap="round" stroke-linejoin="round" d="M3.125 7.5h8.75"></path>
</svg>
<svg id="icon-back" width="15" height="15" viewBox="0 0 15 15" x="0" y="15">
<path fill="none" stroke="#fff" stroke-width="2.5" stroke-miterlimit="4" stroke-linecap="round" stroke-linejoin="round" d="M5.625 8.75l-3.125-3.125 3.125-3.125"></path>
<path fill="none" stroke="#fff" stroke-width="2.5" stroke-miterlimit="4" stroke-linecap="round" stroke-linejoin="round" d="M12.5 12.5v-4.375c0-1.381-1.119-2.5-2.5-2.5v0h-7.5"></path>
</svg>
<svg id="icon-bell" width="15" height="15" viewBox="0 0 15 15" x="0" y="30">
<path fill="none" stroke="#fff" stroke-width="2.5" stroke-miterlimit="4" stroke-linecap="round" stroke-linejoin="round" d="M13.75 10.625h-12.5c1.036 0 1.875-0.839 1.875-1.875v0-3.125c0-2.416 1.959-4.375 4.375-4.375s4.375 1.959 4.375 4.375v0 3.125c0 1.036 0.839 1.875 1.875 1.875v0zM8.581 13.125c-0.22 0.375-0.622 0.623-1.081 0.623s-0.861-0.248-1.078-0.617l-0.003-0.006"></path>
</svg>
<svg id="icon-close-grey" width="15" height="15" viewBox="0 0 15 15" x="0" y="45">
<path fill="none" stroke="#808080" stroke-width="1.25" stroke-miterlimit="4" stroke-linecap="round" stroke-linejoin="round" d="M11.25 3.75l-7.5 7.5"></path>
<path fill="none" stroke="#808080" stroke-width="1.25" stroke-miterlimit="4" stroke-linecap="round" stroke-linejoin="round" d="M3.75 3.75l7.5 7.5"></path>
</svg>
<svg id="icon-close" width="15" height="15" viewBox="0 0 15 15" x="0" y="60">
<path fill="none" stroke="#000" stroke-width="1.25" stroke-miterlimit="4" stroke-linecap="round" stroke-linejoin="round" d="M11.25 3.75l-7.5 7.5"></path>
<path fill="none" stroke="#000" stroke-width="1.25" stroke-miterlimit="4" stroke-linecap="round" stroke-linejoin="round" d="M3.75 3.75l7.5 7.5"></path>
</svg>
<svg id="icon-edit" width="15" height="15" viewBox="0 0 15 15" x="0" y="75">
<path fill="none" stroke="#4d4d4d" stroke-width="1.25" stroke-miterlimit="4" stroke-linecap="round" stroke-linejoin="round" d="M10 1.875l3.125 3.125-8.125 8.125h-3.125v-3.125l8.125-8.125z"></path>
</svg>
<svg id="icon-info" width="15" height="15" viewBox="0 0 15 15" x="0" y="90">
<path fill="none" stroke="#fff" stroke-width="2.5" stroke-miterlimit="4" stroke-linecap="round" stroke-linejoin="round" d="M13.75 7.5c0 3.452-2.798 6.25-6.25 6.25s-6.25-2.798-6.25-6.25c0-3.452 2.798-6.25 6.25-6.25s6.25 2.798 6.25 6.25z"></path>
<path fill="none" stroke="#fff" stroke-width="2.5" stroke-miterlimit="4" stroke-linecap="round" stroke-linejoin="round" d="M7.5 10v-2.5"></path>
<path fill="none" stroke="#fff" stroke-width="2.5" stroke-miterlimit="4" stroke-linecap="round" stroke-linejoin="round" d="M7.5 5v0"></path>
</svg>
<svg id="icon-layout" width="15" height="15" viewBox="0 0 15 15" x="0" y="105">
<path fill="none" stroke="#808080" stroke-width="1.25" stroke-miterlimit="4" stroke-linecap="round" stroke-linejoin="round" d="M3.125 1.875h8.75c0.69 0 1.25 0.56 1.25 1.25v8.75c0 0.69-0.56 1.25-1.25 1.25h-8.75c-0.69 0-1.25-0.56-1.25-1.25v-8.75c0-0.69 0.56-1.25 1.25-1.25z"></path>
<path fill="none" stroke="#808080" stroke-width="1.25" stroke-miterlimit="4" stroke-linecap="round" stroke-linejoin="round" d="M1.875 5.625h11.25"></path>
<path fill="none" stroke="#808080" stroke-width="1.25" stroke-miterlimit="4" stroke-linecap="round" stroke-linejoin="round" d="M5.625 13.125v-7.5"></path>
</svg>
<svg id="icon-menu-grey" width="15" height="15" viewBox="0 0 15 15" x="0" y="120">
<path fill="none" stroke="#808080" stroke-width="1.25" stroke-miterlimit="4" stroke-linecap="round" stroke-linejoin="round" d="M8.75 7.5c0 0.69-0.56 1.25-1.25 1.25s-1.25-0.56-1.25-1.25c0-0.69 0.56-1.25 1.25-1.25s1.25 0.56 1.25 1.25z"></path>
<path fill="none" stroke="#808080" stroke-width="1.25" stroke-miterlimit="4" stroke-linecap="round" stroke-linejoin="round" d="M13.75 7.5c0 0.69-0.56 1.25-1.25 1.25s-1.25-0.56-1.25-1.25c0-0.69 0.56-1.25 1.25-1.25s1.25 0.56 1.25 1.25z"></path>
<path fill="none" stroke="#808080" stroke-width="1.25" stroke-miterlimit="4" stroke-linecap="round" stroke-linejoin="round" d="M3.75 7.5c0 0.69-0.56 1.25-1.25 1.25s-1.25-0.56-1.25-1.25c0-0.69 0.56-1.25 1.25-1.25s1.25 0.56 1.25 1.25z"></path>
</svg>
<svg id="icon-menu" width="15" height="15" viewBox="0 0 15 15" x="0" y="135">
<path fill="none" stroke="#fff" stroke-width="1.25" stroke-miterlimit="4" stroke-linecap="round" stroke-linejoin="round" d="M8.75 7.5c0 0.69-0.56 1.25-1.25 1.25s-1.25-0.56-1.25-1.25c0-0.69 0.56-1.25 1.25-1.25s1.25 0.56 1.25 1.25z"></path>
<path fill="none" stroke="#fff" stroke-width="1.25" stroke-miterlimit="4" stroke-linecap="round" stroke-linejoin="round" d="M13.75 7.5c0 0.69-0.56 1.25-1.25 1.25s-1.25-0.56-1.25-1.25c0-0.69 0.56-1.25 1.25-1.25s1.25 0.56 1.25 1.25z"></path>
<path fill="none" stroke="#fff" stroke-width="1.25" stroke-miterlimit="4" stroke-linecap="round" stroke-linejoin="round" d="M3.75 7.5c0 0.69-0.56 1.25-1.25 1.25s-1.25-0.56-1.25-1.25c0-0.69 0.56-1.25 1.25-1.25s1.25 0.56 1.25 1.25z"></path>
</svg>
<svg id="icon-private" width="15" height="15" viewBox="0 0 15 15" x="0" y="150">
<path fill="none" stroke="#fff" stroke-width="1.25" stroke-miterlimit="4" stroke-linecap="round" stroke-linejoin="round" d="M2.5 4.375h10c0.69 0 1.25 0.56 1.25 1.25v6.25c0 0.69-0.56 1.25-1.25 1.25h-10c-0.69 0-1.25-0.56-1.25-1.25v-6.25c0-0.69 0.56-1.25 1.25-1.25z"></path>
<path fill="none" stroke="#fff" stroke-width="1.25" stroke-miterlimit="4" stroke-linecap="round" stroke-linejoin="round" d="M10 13.125v-10c0-0.69-0.56-1.25-1.25-1.25v0h-2.5c-0.69 0-1.25 0.56-1.25 1.25v0 10"></path>
</svg>
<svg id="icon-search" width="15" height="15" viewBox="0 0 15 15" x="0" y="165">
<path fill="none" stroke="#fff" stroke-width="2" stroke-miterlimit="4" stroke-linecap="round" stroke-linejoin="round" d="M11.25 6.563c0 2.589-2.099 4.688-4.688 4.688s-4.688-2.099-4.688-4.688c0-2.589 2.099-4.688 4.688-4.688s4.688 2.099 4.688 4.688z"></path>
<path fill="none" stroke="#fff" stroke-width="2" stroke-miterlimit="4" stroke-linecap="round" stroke-linejoin="round" d="M13.125 13.125l-3.25-3.25"></path>
</svg>
<svg id="icon-star" width="15" height="15" viewBox="0 0 15 15" x="0" y="180">
<path fill="none" stroke="#fff" stroke-width="1.25" stroke-miterlimit="4" stroke-linecap="round" stroke-linejoin="round" d="M7.5 1.25l1.931 3.912 4.319 0.631-3.125 3.044 0.738 4.3-3.863-2.031-3.862 2.031 0.738-4.3-3.125-3.044 4.319-0.631 1.931-3.912z"></path>
</svg>
<svg id="icon-text" width="15" height="15" viewBox="0 0 15 15" x="0" y="195">
<path fill="none" stroke="#808080" stroke-width="1.25" stroke-miterlimit="4" stroke-linecap="round" stroke-linejoin="round" d="M10.625 6.25h-8.75"></path>
<path fill="none" stroke="#808080" stroke-width="1.25" stroke-miterlimit="4" stroke-linecap="round" stroke-linejoin="round" d="M13.125 3.75h-11.25"></path>
<path fill="none" stroke="#808080" stroke-width="1.25" stroke-miterlimit="4" stroke-linecap="round" stroke-linejoin="round" d="M13.125 8.75h-11.25"></path>
<path fill="none" stroke="#808080" stroke-width="1.25" stroke-miterlimit="4" stroke-linecap="round" stroke-linejoin="round" d="M10.625 11.25h-8.75"></path>
</svg>
<svg id="icon-trello-logo" width="53" height="15" viewBox="0 0 53 15" x="0" y="210">
<path fill="#fff" d="M42.614 11.24c-0.808 0.329-1.446 1.467-2.416 2.114-0.060 0.040-0.12 0.060-0.16 0.060-0.080 0-0.18-0.080-0.18-0.441 0-1.243 0.401-1.845 0.742-2.727 1.183-3.068 3.208-5.694 5.013-8.562 0.14-0.221 0.221-0.461 0.221-0.722 0-0.221-0.080-0.401-0.18-0.622-0.080-0.18-0.441-0.341-0.842-0.341-0.221 0-0.421 0.020-0.682 0.020-0.942 0-1.143 1.384-1.363 1.744-1.504 2.546-3.228 5.694-4.11 7.92-0.193 0.499-0.402 0.998-0.561 1.51-0.872 0.252-1.525 1.478-2.547 2.159-0.060 0.040-0.12 0.060-0.16 0.060-0.080 0-0.18-0.080-0.18-0.441 0-1.243 0.401-1.845 0.742-2.727 1.183-3.068 3.208-5.694 5.013-8.562 0.14-0.221 0.221-0.461 0.221-0.722 0-0.221-0.080-0.401-0.18-0.622-0.080-0.18-0.441-0.341-0.842-0.341-0.221 0-0.421 0.020-0.682 0.020-0.942 0-1.143 1.384-1.363 1.744-1.504 2.546-3.228 5.694-4.11 7.92-0.070 0.181-0.142 0.362-0.213 0.543v0c-0.022 0.012-0.044 0.024-0.067 0.038-1.023 0.602-1.885 1.664-3.128 2.386-0.241 0.14-0.982 0.662-1.584 0.662-0.14 0-0.261-0.040-0.381-0.1-0.18-0.080-0.361-0.461-0.361-0.581 0-0.1 0.020-0.12 0.221-0.241 1.764-1.063 3.208-2.587 4.451-4.11 0.461-0.561 1.063-1.664 1.063-2.466 0-0.521-0.18-1.123-0.802-1.343-0.441-0.16-0.942-0.241-1.343-0.241-1.063 0-1.845 0.481-2.286 0.942-0.449 0.479-0.883 0.972-1.287 1.481-0.422-0.364-1.016-0.519-1.58-0.519-0.662 0-1.905 0.822-2.546 1.303-0.1 0.080-0.16 0.12-0.201 0.12-0.020 0-0.040-0.020-0.040-0.060 0-0.020 0.040-0.201 0.040-0.521 0-0.281-0.060-0.642-0.321-1.083-0.060-0.1-0.421-0.321-0.862-0.321-0.541 0-1.043 0.261-1.043 0.541 0 0.201 0.18 0.281 0.18 0.461 0 0.1-0.080 0.561-0.201 1.003-0.341 1.283-0.762 2.546-1.203 3.81-0.241 0.702-1.043 1.323-1.043 2.085 0 0.241 0.16 0.561 0.381 0.802 0.361 0.401 0.581 0.541 0.902 0.541 0.14 0 0.301-0.040 0.441-0.16 0.301-0.261 0.461-0.521 0.541-0.882 0.521-2.366 2.025-3.97 3.689-5.033 0.561-0.361 1.323-0.742 1.424-0.742 0.103 0 0.264 0.047 0.426 0.094v0c-0.465 0.759-0.842 1.559-1.087 2.413-0.080 0.281-0.12 0.541-0.12 0.822 0 0.461 0.1 0.942 0.261 1.404 0.221 0.642 0.581 1.203 1.083 1.464 0.922 0.481 1.584 0.742 2.186 0.742 0.341 0 0.602-0.060 0.882-0.221 1.318-0.746 2.126-1.311 2.709-1.814 0.016 0.509 0.116 0.792 0.479 1.172 0.361 0.381 0.922 0.722 1.664 0.882 0.12 0.020 0.241 0.040 0.361 0.040 0.849 0 1.666-0.69 2.296-1.374v0c0.073 0.149 0.179 0.292 0.331 0.451 0.361 0.381 0.922 0.722 1.664 0.882 0.12 0.020 0.241 0.040 0.361 0.040 0.994 0 1.945-0.947 2.602-1.721 0.219 0.453 0.831 0.901 1.568 1.26 0.201 0.1 0.441 0.16 0.662 0.16 0.862 0 1.484-0.702 1.965-1.223 1.243-1.363 1.925-3.048 2.446-5.173 0.040-0.16 0.1-0.221 0.18-0.221 0.201 0 0.461 0 0.742-0.040 0.541-0.080 0.962-0.261 1.464-0.341 0.301-0.060 0.261-0.16 0.541-0.261 0.201-0.080 0.361-0.16 0.361-0.361 0-0.341-0.622-0.702-1.564-0.702-0.742 0-1.183 0.060-1.484 0.060-0.461 0-0.581-0.14-0.882-0.922 0 0 0.301 0.782 0 0-0.060-0.16-0.12-0.241-0.301-0.401-0.421-0.361-0.942-0.481-1.363-0.481-1.003 0-1.865 1.023-2.466 1.885-0.14 0.201-0.341 0.361-0.481 0.581-0.826 1.239-1.617 2.636-1.714 4.142v0zM16.979 4.411c0.501 0 0.782-0.040 0.842-0.040s0.1 0.020 0.1 0.080c0 0.040-0.020 0.1-0.16 0.401-1.223 2.627-2.065 5.293-2.807 8.241-0.020 0.080-0.080 0.381-0.080 0.682 0 0.281 0.080 0.581 0.361 0.742 0.541 0.321 0.982 0.461 1.283 0.461 0.441 0 0.662-0.281 0.662-0.742 0-0.401 0.020-0.822 0.080-1.143 0.561-2.947 1.404-5.253 2.707-7.659 0.622-1.143 0.702-1.203 0.702-1.303 0-0.040-0.020-0.1-0.060-0.16 0.802-0.18 1.764-0.301 2.647-0.301 0.1 0 0.501 0.14 0.561 0.201 0.14 0.14 0.281 0.281 0.521 0.281 0.201 0 0.541-0.14 0.662-0.221 0.281-0.201 0.421-0.421 0.421-0.782 0-0.341-1.263-1.183-2.145-1.183-1.083 0-2.065 0.14-2.988 0.321-0.401 0.080-1.845 0.301-2.887 0.301-1.003 0-0.942-0.14-1.363-0.14-0.241 0-0.361 0.12-0.461 0.221s-0.16 0.501-0.16 0.862c0 0.18 0 0.321 0.1 0.441 0.301 0.361 0.882 0.441 1.464 0.441 0 0-0.581 0 0 0zM31.836 6.035c0 0.18-0.060 0.301-0.301 0.682s-0.14 0.381-0.441 0.782c-0.581 0.782-1.303 1.564-2.246 2.426-0.261 0.241-0.301 0.241-0.341 0.241-0.020 0-0.060-0.020-0.060-0.060 0-0.060 0.020-0.14 0.221-0.561 0.622-1.303 1.384-2.165 2.226-3.008 0.461-0.461 0.742-0.622 0.842-0.622 0.060 0 0.1 0.020 0.1 0.12 0 0 0-0.1 0 0zM47.255 6.557c0.020 0 0.040 0.020 0.060 0.060 0.020 0.060 0.060 0.12 0.16 0.201 0.080 0.060 0.080 0.341 0.080 0.561 0 1.945-1.103 3.549-2.186 5.173-0.241 0.361-0.381 0.421-0.501 0.421-0.1 0-0.261-0.261-0.321-0.421-0.080-0.221-0.1-0.481-0.1-0.581 0-1.564 1.484-3.89 2.466-5.173 0.16-0.221 0.281-0.241 0.341-0.241 0 0-0.060 0 0 0z"></path>
<path fill="#fff" d="M1.582 2.215h9.493c0.874 0 1.582 0.708 1.582 1.582v9.493c0 0.874-0.708 1.582-1.582 1.582h-9.493c-0.874 0-1.582-0.708-1.582-1.582v-9.493c0-0.874 0.708-1.582 1.582-1.582zM2.405 3.861c-0.419 0-0.759 0.34-0.759 0.76v7.215c0 0.42 0.34 0.76 0.759 0.76h2.342c0.419 0 0.759-0.34 0.759-0.76v-7.215c0-0.42-0.34-0.76-0.759-0.76h-2.342zM7.911 3.861c-0.419 0-0.759 0.34-0.759 0.76v4.050c0 0.42 0.34 0.76 0.759 0.76h2.342c0.419 0 0.759-0.34 0.759-0.76v-4.050c0-0.42-0.34-0.76-0.759-0.76h-2.342z"></path>
</svg>
<svg id="icon-trello" width="15" height="15" viewBox="0 0 15 15" x="0" y="225">
<path fill="#fff" d="M1.875 0h11.25c1.035 0 1.875 0.84 1.875 1.875v11.25c0 1.035-0.84 1.875-1.875 1.875h-11.25c-1.035 0-1.875-0.84-1.875-1.875v-11.25c0-1.035 0.84-1.875 1.875-1.875zM2.85 1.95c-0.497 0-0.9 0.403-0.9 0.899v8.514c0 0.497 0.403 0.899 0.9 0.899h2.775c0.497 0 0.9-0.403 0.9-0.899v-8.514c0-0.497-0.403-0.899-0.9-0.899h-2.775zM9.375 1.95c-0.497 0-0.9 0.403-0.9 0.9v4.762c0 0.497 0.403 0.9 0.9 0.9h2.775c0.497 0 0.9-0.403 0.9-0.9v-4.762c0-0.497-0.403-0.9-0.9-0.9h-2.775z"></path>
</svg>
</svg>
